<?xml version="1.0" standalone="no"?>
<!DOCTYPE svg PUBLIC "-//W3C//DTD SVG 20010904//EN"
 "http://www.w3.org/TR/2001/REC-SVG-20010904/DTD/svg10.dtd">
<svg version="1.0" xmlns="http://www.w3.org/2000/svg"
 width="260.000000pt" height="260.000000pt" viewBox="0 0 260.000000 260.000000"
 preserveAspectRatio="xMidYMid meet">
<metadata>
Created by potrace 1.14, written by Peter Selinger 2001-2017
</metadata>
<g transform="translate(0.000000,260.000000) scale(0.100000,-0.100000)"
fill="#000000" stroke="none">
<path d="M1139 2596 c-2 -2 -46 -11 -96 -20 -51 -8 -113 -24 -137 -36 -25 -11
-50 -20 -56 -20 -7 0 -51 -18 -98 -40 -105 -49 -258 -151 -331 -220 -29 -27
-57 -50 -62 -50 -5 0 -9 -6 -9 -12 0 -7 -19 -34 -43 -59 -23 -26 -54 -64 -68
-85 -14 -22 -41 -64 -61 -94 -20 -30 -39 -66 -43 -80 -4 -14 -13 -34 -19 -45
-11 -17 -68 -166 -72 -187 -1 -5 -2 -9 -3 -10 -2 -2 -4 -14 -7 -28 -2 -14 -11
-57 -19 -97 -20 -95 -20 -325 0 -418 8 -38 16 -86 19 -105 5 -37 24 -98 36
-115 4 -5 17 -37 28 -71 12 -33 32 -81 45 -106 41 -77 144 -220 204 -283 31
-33 56 -63 55 -67 -1 -5 4 -8 11 -8 6 0 30 -17 53 -38 22 -21 68 -56 103 -78
34 -21 74 -47 89 -56 15 -10 38 -23 52 -28 14 -6 38 -17 55 -25 62 -28 164
-65 177 -65 8 0 18 -4 23 -8 43 -38 537 -53 592 -19 5 3 28 8 51 10 23 3 55
12 72 20 17 9 55 23 85 32 30 8 78 29 106 45 27 17 52 30 55 30 11 0 170 106
203 135 18 16 45 40 59 53 14 12 29 22 33 22 5 0 9 5 9 12 0 7 19 30 43 53 34
32 129 165 169 238 23 40 57 120 73 167 10 30 21 60 26 65 4 6 10 24 13 40 3
17 10 50 15 75 6 25 15 66 21 92 12 58 13 318 0 373 -5 22 -12 60 -15 85 -4
24 -11 53 -17 63 -5 10 -7 21 -4 24 3 4 2 11 -3 17 -5 6 -20 43 -34 82 -37
102 -99 228 -127 254 -3 3 -21 30 -42 60 -20 30 -61 82 -92 114 -31 33 -56 63
-56 68 0 4 -6 8 -14 8 -8 0 -26 14 -40 30 -14 17 -29 31 -33 32 -4 1 -12 6
-18 11 -68 59 -306 187 -348 187 -7 0 -25 7 -40 15 -35 18 -91 34 -149 41 -24
3 -59 10 -78 15 -34 8 -332 13 -341 5z m344 -16 c132 -29 181 -43 245 -64 74
-25 218 -95 264 -127 14 -11 29 -19 33 -19 13 0 73 -52 179 -155 247 -240 386
-567 386 -912 0 -156 -9 -212 -56 -370 -67 -221 -167 -388 -328 -549 -182
-181 -400 -295 -674 -354 -87 -19 -124 -21 -259 -17 -87 2 -169 7 -183 11 -14
4 -41 9 -60 12 -19 3 -44 9 -55 14 -11 4 -56 20 -100 35 -349 115 -645 399
-774 742 -39 104 -47 131 -72 248 -31 144 -24 375 15 523 67 251 171 437 345
611 181 183 407 304 671 361 95 20 352 27 423 10z"/>
<path d="M682 1298 l3 -833 123 -3 122 -3 0 336 0 336 136 -3 136 -3 169 -280
c94 -154 184 -304 201 -332 l30 -53 160 0 c124 0 159 3 155 13 -2 6 -102 157
-221 335 -120 178 -216 328 -214 333 2 6 37 21 78 35 171 58 283 193 311 376
30 188 -45 378 -185 471 -144 96 -213 107 -657 107 l-349 0 2 -832z m658 611
c139 -17 218 -74 260 -187 63 -167 -26 -347 -198 -399 -46 -14 -98 -17 -262
-18 l-205 0 -3 295 c-1 162 0 300 3 307 6 16 282 18 405 2z"/>
</g>
</svg>
