<?xml version="1.0" standalone="no"?>
<!DOCTYPE svg PUBLIC "-//W3C//DTD SVG 20010904//EN"
 "http://www.w3.org/TR/2001/REC-SVG-20010904/DTD/svg10.dtd">
<svg version="1.0" xmlns="http://www.w3.org/2000/svg"
 width="260.000000pt" height="260.000000pt" viewBox="0 0 260.000000 260.000000"
 preserveAspectRatio="xMidYMid meet">
<metadata>
Created by potrace 1.14, written by Peter Selinger 2001-2017
</metadata>
<g transform="translate(0.000000,260.000000) scale(0.100000,-0.100000)"
fill="#000000" stroke="none">
<path d="M1050 2581 c-47 -10 -112 -25 -145 -35 -101 -31 -275 -120 -366 -187
-128 -95 -172 -138 -303 -300 -7 -9 -26 -39 -42 -67 -16 -29 -32 -52 -36 -52
-5 0 -8 -4 -8 -9 0 -5 -16 -45 -36 -88 -59 -126 -70 -162 -98 -312 -23 -123
-21 -348 5 -481 11 -58 23 -118 26 -135 3 -16 9 -34 13 -40 4 -5 29 -59 56
-120 26 -60 54 -116 61 -123 7 -7 13 -17 13 -21 0 -28 184 -238 277 -317 41
-35 169 -124 177 -124 2 0 36 -18 76 -40 40 -22 80 -40 89 -40 10 0 22 -5 27
-10 13 -13 90 -34 219 -61 87 -18 124 -20 285 -15 111 3 209 11 245 20 65 15
161 43 185 53 8 4 17 7 20 7 3 1 16 8 30 16 14 7 57 30 95 49 87 44 136 78
232 159 85 73 130 117 158 156 11 15 38 52 61 81 23 29 47 67 54 84 7 17 16
31 21 31 5 0 9 5 9 10 0 6 15 43 34 83 81 172 116 335 116 548 0 81 -5 172
-10 201 -18 96 -31 152 -47 203 -22 71 -126 294 -143 305 -4 3 -34 41 -66 85
-33 44 -86 105 -118 135 -33 30 -68 64 -80 75 -46 45 -166 123 -246 159 -47
22 -90 43 -97 48 -17 14 -174 56 -268 73 -111 20 -364 18 -475 -4z m485 -21
c157 -32 212 -50 325 -105 139 -68 150 -75 261 -169 134 -113 241 -246 319
-397 64 -124 84 -183 120 -358 22 -105 28 -337 10 -419 -50 -229 -67 -280
-136 -410 -70 -134 -117 -197 -233 -312 -117 -116 -197 -173 -343 -244 -188
-90 -346 -126 -558 -126 -397 0 -749 167 -1001 476 -54 67 -179 270 -179 292
0 5 -11 36 -24 68 -14 33 -37 119 -51 190 -25 118 -27 143 -22 294 4 144 9
181 36 285 19 70 52 161 81 220 46 95 89 174 100 185 3 3 31 37 63 77 123 151
263 262 442 348 187 90 328 122 545 124 109 1 170 -4 245 -19z"/>
<path d="M678 2134 c-5 -4 -8 -379 -8 -834 0 -629 3 -829 12 -838 8 -8 51 -12
129 -12 107 0 118 2 124 19 3 10 5 23 4 27 -1 5 -1 147 0 317 l1 307 129 0
129 0 107 -177 c59 -98 150 -249 202 -335 l95 -158 164 0 c177 0 184 2 145 51
-25 33 -431 637 -431 642 0 2 15 7 33 10 105 17 269 140 315 237 71 151 69
355 -5 493 -33 60 -128 149 -195 183 -27 14 -84 35 -126 46 -70 19 -110 22
-447 26 -203 2 -373 0 -377 -4z m774 -257 c113 -56 165 -152 156 -291 -6 -87
-31 -139 -92 -193 -75 -66 -120 -76 -363 -81 l-213 -4 0 302 0 302 228 -4
c225 -3 228 -3 284 -31z"/>
</g>
</svg>
